<svg width="16" height="4" viewBox="0 0 16 4" fill="none" xmlns="http://www.w3.org/2000/svg">
<path d="M2.40057 0.400002C3.28405 0.400213 4.00018 1.11609 4.00018 1.99961C4.00018 2.88314 3.28405 3.59901 2.40057 3.59922C1.51692 3.59922 0.799988 2.88327 0.799988 1.99961C0.799989 1.11596 1.51692 0.400002 2.40057 0.400002Z" fill="black"/>
<path d="M8.00018 0.400002C8.88384 0.400002 9.59979 1.11596 9.59979 1.99961C9.59979 2.88327 8.88384 3.59922 8.00018 3.59922C7.11653 3.59922 6.40057 2.88327 6.40057 1.99961C6.40057 1.11596 7.11653 0.400002 8.00018 0.400002Z" fill="black"/>
<path d="M13.5998 0.400002C14.4834 0.400002 15.2004 1.11596 15.2004 1.99961C15.2004 2.88327 14.4834 3.59922 13.5998 3.59922C12.7163 3.59901 12.0002 2.88314 12.0002 1.99961C12.0002 1.11609 12.7163 0.400213 13.5998 0.400002Z" fill="black"/>
</svg>
